<svg width="43" height="32" viewBox="0 0 43 32" fill="none" xmlns="http://www.w3.org/2000/svg">
<path d="M10.3 0.599999C5.2 0.599999 1.6 3.79999 1.6 9C1.6 14.3 5.5 16.7 8.9 16.7C10.3 16.7 11.2 16.3 11.8 15.7L12.2 16C10.8 20.6 6.6 24.3 0.8 26.5L7.1 31.3C15.7 27.4 19.9 20.1 19.9 12.3C19.9 5.7 16.6 0.599999 10.3 0.599999ZM32.5 0.599999C27.4 0.599999 23.8 3.79999 23.8 9C23.8 14.3 27.7 16.7 31.1 16.7C32.5 16.7 33.4 16.3 34 15.7L34.4 16C33 20.6 28.8 24.3 23 26.5L29.3 31.3C37.9 27.4 42.1 20.1 42.1 12.3C42.1 5.7 38.8 0.599999 32.5 0.599999Z" fill="#FCD54C"/>
</svg>
