<svg width="26" height="26" viewBox="0 0 26 26" fill="none" xmlns="http://www.w3.org/2000/svg">
<path d="M3.5301 17.7491C5.26102 19.4824 7.56606 20.523 10.011 20.6747C12.4559 20.8264 14.8719 20.0789 16.8039 18.5728L23.4514 25.2203C23.6871 25.448 24.0029 25.574 24.3306 25.5712C24.6583 25.5683 24.9719 25.4368 25.2036 25.2051C25.4354 24.9733 25.5668 24.6598 25.5697 24.3321C25.5725 24.0043 25.4466 23.6886 25.2189 23.4528L18.5714 16.8053C20.1442 14.7868 20.8879 12.2442 20.6506 9.69627C20.4133 7.1483 19.213 4.78681 17.2945 3.09339C15.3759 1.39998 12.8836 0.502203 10.3259 0.58316C7.76822 0.664117 5.33771 1.71771 3.5301 3.52906C2.5961 4.46259 1.85518 5.571 1.34968 6.79096C0.84417 8.01092 0.583984 9.31852 0.583984 10.6391C0.583984 11.9596 0.84417 13.2672 1.34968 14.4872C1.85518 15.7071 2.5961 16.8155 3.5301 17.7491ZM5.2976 5.29906C6.53332 4.06337 8.15926 3.29436 9.89839 3.12306C11.6375 2.95175 13.3822 3.38875 14.8353 4.35959C16.2884 5.33043 17.3599 6.77506 17.8672 8.44733C18.3746 10.1196 18.2865 11.9161 17.6178 13.5306C16.9492 15.1452 15.7414 16.478 14.2003 17.3019C12.6591 18.1258 10.88 18.3899 9.166 18.0492C7.452 17.7085 5.90916 16.784 4.80035 15.4332C3.69154 14.0825 3.08537 12.3891 3.0851 10.6416C3.08167 9.64853 3.27548 8.6647 3.65529 7.74717C4.03509 6.82963 4.59333 5.99665 5.2976 5.29656V5.29906ZM4.7776 10.6378C4.7776 10.3063 4.9093 9.98835 5.14372 9.75393C5.37814 9.51951 5.69608 9.38781 6.0276 9.38781C6.35912 9.38781 6.67707 9.51951 6.91149 9.75393C7.14591 9.98835 7.2776 10.3063 7.2776 10.6378C7.2786 11.529 7.63304 12.3833 8.26319 13.0135C8.89333 13.6436 9.7477 13.9981 10.6389 13.9991C10.9704 13.9991 11.2883 14.1308 11.5227 14.3652C11.7572 14.5996 11.8889 14.9175 11.8889 15.2491C11.8889 15.5806 11.7572 15.8985 11.5227 16.1329C11.2883 16.3674 10.9704 16.4991 10.6389 16.4991C9.08547 16.4954 7.59675 15.8767 6.49833 14.7783C5.39992 13.6799 4.78123 12.1912 4.7776 10.6378Z" fill="#929292"/>
</svg>
