<svg width="20" height="19" viewBox="0 0 20 19" fill="none" xmlns="http://www.w3.org/2000/svg">
<path d="M17.6522 0H1.35362C0.606794 0 0 0.589644 0 1.31348V16.9045C0 17.6283 0.606794 18.218 1.35362 18.218H17.6522C18.399 18.218 19.0101 17.6283 19.0101 16.9045V1.31348C19.0101 0.589644 18.399 0 17.6522 0ZM5.74545 15.6154H2.92789V6.9212H5.74969V15.6154H5.74545ZM4.33667 5.73378C3.43284 5.73378 2.70299 5.03027 2.70299 4.16817C2.70299 3.30607 3.43284 2.60257 4.33667 2.60257C5.23625 2.60257 5.97035 3.30607 5.97035 4.16817C5.97035 5.03434 5.24049 5.73378 4.33667 5.73378ZM16.3071 15.6154H13.4895V11.3862C13.4895 10.3777 13.4683 9.08052 12.0256 9.08052C10.5574 9.08052 10.3325 10.1785 10.3325 11.313V15.6154H7.51491V6.9212H10.2179V8.10862H10.2561C10.6337 7.42545 11.5545 6.70568 12.9251 6.70568C15.7766 6.70568 16.3071 8.50714 16.3071 10.8495V15.6154Z" fill="#E8E8E8"/>
</svg>
