<svg width="17" height="17" viewBox="0 0 17 17" fill="none" xmlns="http://www.w3.org/2000/svg">
<path d="M17 4.96273C17 4.01242 16.7888 3.48447 16.5776 2.85093C16.3665 2.32298 16.0497 1.79503 15.6273 1.37267C15.205 0.84472 14.677 0.63354 14.1491 0.42236C13.6211 0.21118 12.9876 0.10559 12.0373 0C11.087 0 10.7702 0 8.4472 0C6.22981 0 5.91304 0 4.96273 0C4.01242 0 3.48447 0.21118 2.85093 0.42236C2.32298 0.63354 1.79503 0.95031 1.37267 1.37267C0.95031 1.90062 0.63354 2.32298 0.42236 2.95652C0.21118 3.48447 0.10559 4.11801 0 4.96273C0 5.91304 0 6.22981 0 8.4472C0 10.7702 0 11.087 0 11.9317C0 12.882 0.21118 13.4099 0.42236 14.0435C0.63354 14.5714 0.95031 15.0994 1.37267 15.5217C1.90062 16.0497 2.32298 16.2609 2.85093 16.472C3.37888 16.6832 4.01242 16.7888 4.96273 16.8944C5.91304 16.8944 6.12422 16.8944 8.4472 16.8944C10.7702 16.8944 11.087 16.8944 11.9317 16.8944C12.882 16.8944 13.4099 16.6832 14.0435 16.472C14.5714 16.2609 15.0994 15.9441 15.5217 15.5217C16.0497 14.9938 16.2609 14.5714 16.472 14.0435C16.6832 13.5155 16.7888 12.882 16.8944 11.9317C17 10.9814 16.8944 10.7702 16.8944 8.4472C16.8944 6.12422 17 5.91304 17 4.96273ZM8.4472 12.882C6.01863 12.882 4.11801 10.8758 4.11801 8.5528C4.11801 6.12422 6.12422 4.2236 8.4472 4.2236C10.8758 4.2236 12.7764 6.22981 12.7764 8.5528C12.882 10.8758 10.8758 12.882 8.4472 12.882ZM12.9876 4.96273C12.4596 4.96273 11.9317 4.54037 11.9317 3.90683C11.9317 3.37888 12.354 2.85093 12.9876 2.85093C13.5155 2.85093 14.0435 3.27329 14.0435 3.90683C14.0435 4.54037 13.6211 4.96273 12.9876 4.96273Z" fill="#E8E8E8"/>
<path d="M11.2976 8.44847C11.2976 10.0323 10.0305 11.2994 8.44663 11.2994C6.86278 11.2994 5.5957 10.0323 5.5957 8.44847C5.5957 6.86462 6.96837 5.70312 8.44663 5.70312C10.0305 5.70312 11.2976 6.97021 11.2976 8.44847Z" fill="#E8E8E8"/>
</svg>
