<svg width="18" height="16" viewBox="0 0 18 16" fill="none" xmlns="http://www.w3.org/2000/svg">
<path d="M15.6346 3.84783C15.6457 4.01669 15.6457 4.18559 15.6457 4.35445C15.6457 9.50499 12.0522 15.4396 5.48429 15.4396C3.46084 15.4396 1.58116 14.8003 0 13.6906C0.287493 13.7268 0.563891 13.7388 0.862445 13.7388C2.53203 13.7388 4.06898 13.1237 5.29631 12.0743C3.72621 12.0381 2.41042 10.9163 1.95708 9.37233C2.17824 9.40849 2.39936 9.43263 2.63158 9.43263C2.95222 9.43263 3.2729 9.38436 3.57142 9.29996C1.93499 8.93807 0.70762 7.37 0.70762 5.47623V5.428C1.18305 5.7175 1.73595 5.89843 2.32193 5.92252C1.35997 5.2229 0.729743 4.02876 0.729743 2.67778C0.729743 1.95406 0.906622 1.29064 1.21624 0.711652C2.97431 3.07584 5.61695 4.61978 8.5802 4.78868C8.52493 4.49918 8.49175 4.19766 8.49175 3.8961C8.49175 1.749 10.084 0 12.0632 0C13.0915 0 14.0202 0.470425 14.6726 1.23034C15.4798 1.06148 16.2538 0.735786 16.9393 0.289495C16.6739 1.19418 16.11 1.9541 15.3692 2.43655C16.0879 2.35216 16.7845 2.13499 17.4258 1.83347C16.9394 2.60542 16.3312 3.29294 15.6346 3.84783Z" fill="#E8E8E8"/>
</svg>
